<mxfile host="65bd71144e">
    <diagram name="Sida-1" id="nnDoThvHQ_QYUEsaVjcj">
        <mxGraphModel dx="846" dy="402" grid="1" gridSize="10" guides="1" tooltips="1" connect="1" arrows="1" fold="1" page="1" pageScale="1" pageWidth="827" pageHeight="1169" math="0" shadow="0">
            <root>
                <mxCell id="0"/>
                <mxCell id="1" parent="0"/>
                <mxCell id="XFpWWGiLl26WrSRfNVlt-15" style="edgeStyle=orthogonalEdgeStyle;rounded=0;orthogonalLoop=1;jettySize=auto;html=1;exitX=0.5;exitY=1;exitDx=0;exitDy=0;entryX=0.5;entryY=0;entryDx=0;entryDy=0;curved=1;" parent="1" source="XFpWWGiLl26WrSRfNVlt-1" target="XFpWWGiLl26WrSRfNVlt-4" edge="1">
                    <mxGeometry relative="1" as="geometry"/>
                </mxCell>
                <mxCell id="XFpWWGiLl26WrSRfNVlt-16" style="edgeStyle=orthogonalEdgeStyle;rounded=0;orthogonalLoop=1;jettySize=auto;html=1;exitX=0.5;exitY=1;exitDx=0;exitDy=0;entryX=0.5;entryY=0;entryDx=0;entryDy=0;curved=1;" parent="1" source="12" target="XFpWWGiLl26WrSRfNVlt-2" edge="1">
                    <mxGeometry relative="1" as="geometry"/>
                </mxCell>
                <mxCell id="XFpWWGiLl26WrSRfNVlt-1" value="&lt;b&gt;Void loop&lt;/b&gt;" style="rounded=1;whiteSpace=wrap;html=1;" parent="1" vertex="1">
                    <mxGeometry x="390" y="10" width="120" height="30" as="geometry"/>
                </mxCell>
                <mxCell id="XFpWWGiLl26WrSRfNVlt-17" style="edgeStyle=orthogonalEdgeStyle;rounded=0;orthogonalLoop=1;jettySize=auto;html=1;exitX=0.5;exitY=1;exitDx=0;exitDy=0;curved=1;" parent="1" source="XFpWWGiLl26WrSRfNVlt-2" target="XFpWWGiLl26WrSRfNVlt-3" edge="1">
                    <mxGeometry relative="1" as="geometry"/>
                </mxCell>
                <mxCell id="21" value="WIFI configurations" style="edgeLabel;html=1;align=center;verticalAlign=middle;resizable=0;points=[];fontSize=6;" vertex="1" connectable="0" parent="XFpWWGiLl26WrSRfNVlt-17">
                    <mxGeometry x="-0.3047" y="-1" relative="1" as="geometry">
                        <mxPoint as="offset"/>
                    </mxGeometry>
                </mxCell>
                <mxCell id="XFpWWGiLl26WrSRfNVlt-2" value="&lt;b&gt;WiFi Manager&lt;/b&gt;" style="rounded=1;whiteSpace=wrap;html=1;" parent="1" vertex="1">
                    <mxGeometry x="560" y="90" width="120" height="30" as="geometry"/>
                </mxCell>
                <mxCell id="XFpWWGiLl26WrSRfNVlt-3" value="&lt;b&gt;MQTT Manager&lt;/b&gt;" style="rounded=1;whiteSpace=wrap;html=1;" parent="1" vertex="1">
                    <mxGeometry x="560" y="170" width="120" height="30" as="geometry"/>
                </mxCell>
                <mxCell id="14" style="edgeStyle=orthogonalEdgeStyle;curved=1;html=1;exitX=0.5;exitY=1;exitDx=0;exitDy=0;entryX=0.5;entryY=0;entryDx=0;entryDy=0;" edge="1" parent="1" source="XFpWWGiLl26WrSRfNVlt-4" target="8">
                    <mxGeometry relative="1" as="geometry"/>
                </mxCell>
                <mxCell id="20" value="hook change" style="edgeLabel;html=1;align=center;verticalAlign=middle;resizable=0;points=[];fontSize=6;" vertex="1" connectable="0" parent="14">
                    <mxGeometry x="-0.2888" y="1" relative="1" as="geometry">
                        <mxPoint as="offset"/>
                    </mxGeometry>
                </mxCell>
                <mxCell id="XFpWWGiLl26WrSRfNVlt-4" value="&lt;b&gt;Sensing SHK&lt;/b&gt;" style="rounded=1;whiteSpace=wrap;html=1;" parent="1" vertex="1">
                    <mxGeometry x="390" y="90" width="120" height="30" as="geometry"/>
                </mxCell>
                <mxCell id="XFpWWGiLl26WrSRfNVlt-19" style="edgeStyle=orthogonalEdgeStyle;rounded=0;orthogonalLoop=1;jettySize=auto;html=1;exitX=1;exitY=1;exitDx=0;exitDy=0;curved=1;entryX=0;entryY=0.25;entryDx=0;entryDy=0;" parent="1" source="XFpWWGiLl26WrSRfNVlt-5" edge="1" target="XFpWWGiLl26WrSRfNVlt-6">
                    <mxGeometry relative="1" as="geometry">
                        <mxPoint x="490" y="320" as="targetPoint"/>
                    </mxGeometry>
                </mxCell>
                <mxCell id="23" value="Current Line Statuses" style="edgeLabel;html=1;align=center;verticalAlign=middle;resizable=0;points=[];fontSize=6;" vertex="1" connectable="0" parent="XFpWWGiLl26WrSRfNVlt-19">
                    <mxGeometry x="0.2513" y="9" relative="1" as="geometry">
                        <mxPoint as="offset"/>
                    </mxGeometry>
                </mxCell>
                <mxCell id="2" style="edgeStyle=orthogonalEdgeStyle;html=1;exitX=0.25;exitY=1;exitDx=0;exitDy=0;entryX=0.5;entryY=0;entryDx=0;entryDy=0;curved=1;" parent="1" source="XFpWWGiLl26WrSRfNVlt-6" target="XFpWWGiLl26WrSRfNVlt-7" edge="1">
                    <mxGeometry relative="1" as="geometry">
                        <Array as="points">
                            <mxPoint x="520" y="470"/>
                            <mxPoint x="170" y="470"/>
                        </Array>
                    </mxGeometry>
                </mxCell>
                <mxCell id="24" style="edgeStyle=orthogonalEdgeStyle;curved=1;html=1;exitX=1;exitY=0.25;exitDx=0;exitDy=0;entryX=0;entryY=0.5;entryDx=0;entryDy=0;fontSize=6;" edge="1" parent="1" source="XFpWWGiLl26WrSRfNVlt-5" target="8">
                    <mxGeometry relative="1" as="geometry"/>
                </mxCell>
                <mxCell id="25" value="Current line Statuses" style="edgeLabel;html=1;align=center;verticalAlign=middle;resizable=0;points=[];fontSize=6;" vertex="1" connectable="0" parent="24">
                    <mxGeometry x="0.3912" y="-1" relative="1" as="geometry">
                        <mxPoint as="offset"/>
                    </mxGeometry>
                </mxCell>
                <mxCell id="XFpWWGiLl26WrSRfNVlt-5" value="&lt;b&gt;Line System&lt;/b&gt;&lt;div&gt;&lt;br&gt;&lt;/div&gt;&lt;div&gt;-Current Status&lt;/div&gt;&lt;div&gt;- Previous Status&lt;/div&gt;&lt;div&gt;- Time last changed&lt;/div&gt;" style="rounded=1;whiteSpace=wrap;html=1;" parent="1" vertex="1">
                    <mxGeometry x="90" y="170" width="120" height="90" as="geometry"/>
                </mxCell>
                <mxCell id="XFpWWGiLl26WrSRfNVlt-18" style="edgeStyle=orthogonalEdgeStyle;rounded=0;orthogonalLoop=1;jettySize=auto;html=1;exitX=0;exitY=0;exitDx=0;exitDy=0;curved=1;" parent="1" source="XFpWWGiLl26WrSRfNVlt-6" target="XFpWWGiLl26WrSRfNVlt-5" edge="1">
                    <mxGeometry relative="1" as="geometry">
                        <Array as="points">
                            <mxPoint x="490" y="230"/>
                        </Array>
                    </mxGeometry>
                </mxCell>
                <mxCell id="22" value="Line Status Changes" style="edgeLabel;html=1;align=center;verticalAlign=middle;resizable=0;points=[];fontSize=6;" vertex="1" connectable="0" parent="XFpWWGiLl26WrSRfNVlt-18">
                    <mxGeometry x="-0.405" y="-7" relative="1" as="geometry">
                        <mxPoint x="-68" as="offset"/>
                    </mxGeometry>
                </mxCell>
                <mxCell id="3" style="edgeStyle=orthogonalEdgeStyle;curved=1;html=1;exitX=0.5;exitY=1;exitDx=0;exitDy=0;entryX=0.5;entryY=0;entryDx=0;entryDy=0;" parent="1" source="XFpWWGiLl26WrSRfNVlt-6" target="XFpWWGiLl26WrSRfNVlt-8" edge="1">
                    <mxGeometry relative="1" as="geometry">
                        <Array as="points">
                            <mxPoint x="550" y="490"/>
                            <mxPoint x="310" y="490"/>
                        </Array>
                    </mxGeometry>
                </mxCell>
                <mxCell id="4" style="edgeStyle=orthogonalEdgeStyle;curved=1;html=1;exitX=0.75;exitY=1;exitDx=0;exitDy=0;entryX=0.5;entryY=0;entryDx=0;entryDy=0;" parent="1" source="XFpWWGiLl26WrSRfNVlt-6" target="XFpWWGiLl26WrSRfNVlt-9" edge="1">
                    <mxGeometry relative="1" as="geometry">
                        <Array as="points">
                            <mxPoint x="580" y="490"/>
                            <mxPoint x="450" y="490"/>
                        </Array>
                    </mxGeometry>
                </mxCell>
                <mxCell id="5" style="edgeStyle=orthogonalEdgeStyle;curved=1;html=1;entryX=0.25;entryY=0;entryDx=0;entryDy=0;exitX=1;exitY=1;exitDx=0;exitDy=0;" parent="1" source="XFpWWGiLl26WrSRfNVlt-6" target="XFpWWGiLl26WrSRfNVlt-10" edge="1">
                    <mxGeometry relative="1" as="geometry">
                        <Array as="points">
                            <mxPoint x="640" y="380"/>
                            <mxPoint x="640" y="520"/>
                            <mxPoint x="560" y="520"/>
                        </Array>
                        <mxPoint x="620" y="340" as="sourcePoint"/>
                    </mxGeometry>
                </mxCell>
                <mxCell id="6" style="edgeStyle=orthogonalEdgeStyle;curved=1;html=1;exitX=1;exitY=0.5;exitDx=0;exitDy=0;" parent="1" source="XFpWWGiLl26WrSRfNVlt-6" target="XFpWWGiLl26WrSRfNVlt-11" edge="1">
                    <mxGeometry relative="1" as="geometry"/>
                </mxCell>
                <mxCell id="11" style="edgeStyle=orthogonalEdgeStyle;curved=1;html=1;exitX=0;exitY=0.5;exitDx=0;exitDy=0;entryX=1;entryY=0.25;entryDx=0;entryDy=0;" parent="1" source="XFpWWGiLl26WrSRfNVlt-6" target="10" edge="1">
                    <mxGeometry relative="1" as="geometry"/>
                </mxCell>
                <mxCell id="26" value="line matrix configurations" style="edgeLabel;html=1;align=center;verticalAlign=middle;resizable=0;points=[];fontSize=6;" vertex="1" connectable="0" parent="11">
                    <mxGeometry x="-0.2516" y="7" relative="1" as="geometry">
                        <mxPoint x="-83" y="33" as="offset"/>
                    </mxGeometry>
                </mxCell>
                <mxCell id="XFpWWGiLl26WrSRfNVlt-6" value="&lt;b&gt;LineActions&lt;/b&gt;&lt;div&gt;&lt;br&gt;&lt;/div&gt;&lt;div&gt;Reacts on status changes and imitate functions for example ringing&lt;/div&gt;&lt;div&gt;&lt;br&gt;&lt;/div&gt;" style="rounded=1;whiteSpace=wrap;html=1;" parent="1" vertex="1">
                    <mxGeometry x="490" y="260" width="120" height="120" as="geometry"/>
                </mxCell>
                <mxCell id="XFpWWGiLl26WrSRfNVlt-7" value="RingFunction" style="rounded=1;whiteSpace=wrap;html=1;" parent="1" vertex="1">
                    <mxGeometry x="110" y="600" width="120" height="40" as="geometry"/>
                </mxCell>
                <mxCell id="XFpWWGiLl26WrSRfNVlt-8" value="PulsDialing" style="rounded=1;whiteSpace=wrap;html=1;" parent="1" vertex="1">
                    <mxGeometry x="250" y="600" width="120" height="40" as="geometry"/>
                </mxCell>
                <mxCell id="XFpWWGiLl26WrSRfNVlt-9" value="ToneDialing" style="rounded=1;whiteSpace=wrap;html=1;" parent="1" vertex="1">
                    <mxGeometry x="390" y="600" width="120" height="40" as="geometry"/>
                </mxCell>
                <mxCell id="13" style="edgeStyle=orthogonalEdgeStyle;curved=1;html=1;exitX=0.75;exitY=0;exitDx=0;exitDy=0;entryX=1;entryY=0.75;entryDx=0;entryDy=0;" edge="1" parent="1" source="XFpWWGiLl26WrSRfNVlt-10" target="XFpWWGiLl26WrSRfNVlt-6">
                    <mxGeometry relative="1" as="geometry">
                        <Array as="points">
                            <mxPoint x="620" y="540"/>
                            <mxPoint x="660" y="540"/>
                            <mxPoint x="660" y="350"/>
                        </Array>
                    </mxGeometry>
                </mxCell>
                <mxCell id="XFpWWGiLl26WrSRfNVlt-10" value="MQTT-Uppdate" style="rounded=1;whiteSpace=wrap;html=1;" parent="1" vertex="1">
                    <mxGeometry x="530" y="600" width="120" height="40" as="geometry"/>
                </mxCell>
                <mxCell id="XFpWWGiLl26WrSRfNVlt-11" value="Audio Generator" style="rounded=1;whiteSpace=wrap;html=1;" parent="1" vertex="1">
                    <mxGeometry x="670" y="600" width="120" height="40" as="geometry"/>
                </mxCell>
                <mxCell id="9" style="edgeStyle=orthogonalEdgeStyle;html=1;exitX=0.5;exitY=1;exitDx=0;exitDy=0;entryX=0.266;entryY=-0.02;entryDx=0;entryDy=0;entryPerimeter=0;curved=1;" parent="1" source="8" target="XFpWWGiLl26WrSRfNVlt-6" edge="1">
                    <mxGeometry relative="1" as="geometry">
                        <Array as="points">
                            <mxPoint x="450" y="230"/>
                            <mxPoint x="522" y="230"/>
                        </Array>
                    </mxGeometry>
                </mxCell>
                <mxCell id="19" value="Action to be initiated" style="edgeLabel;html=1;align=center;verticalAlign=middle;resizable=0;points=[];fontSize=6;" vertex="1" connectable="0" parent="9">
                    <mxGeometry x="0.3671" y="-3" relative="1" as="geometry">
                        <mxPoint as="offset"/>
                    </mxGeometry>
                </mxCell>
                <mxCell id="8" value="&lt;b&gt;hookChange&lt;br&gt;&lt;/b&gt;" style="rounded=1;whiteSpace=wrap;html=1;" parent="1" vertex="1">
                    <mxGeometry x="390" y="170" width="120" height="40" as="geometry"/>
                </mxCell>
                <mxCell id="27" style="edgeStyle=orthogonalEdgeStyle;curved=1;html=1;exitX=1;exitY=0.75;exitDx=0;exitDy=0;entryX=0;entryY=0.75;entryDx=0;entryDy=0;fontSize=6;" edge="1" parent="1" source="10" target="XFpWWGiLl26WrSRfNVlt-6">
                    <mxGeometry relative="1" as="geometry"/>
                </mxCell>
                <mxCell id="28" value="Connections establiched" style="edgeLabel;html=1;align=center;verticalAlign=middle;resizable=0;points=[];fontSize=6;" vertex="1" connectable="0" parent="27">
                    <mxGeometry x="-0.0327" y="9" relative="1" as="geometry">
                        <mxPoint x="-56" y="25" as="offset"/>
                    </mxGeometry>
                </mxCell>
                <mxCell id="10" value="&lt;b&gt;Line Matrix&lt;/b&gt;" style="rounded=1;whiteSpace=wrap;html=1;" parent="1" vertex="1">
                    <mxGeometry x="80" y="360" width="120" height="40" as="geometry"/>
                </mxCell>
                <mxCell id="12" value="&lt;b&gt;Void setup&lt;/b&gt;" style="rounded=1;whiteSpace=wrap;html=1;" vertex="1" parent="1">
                    <mxGeometry x="560" y="10" width="120" height="30" as="geometry"/>
                </mxCell>
            </root>
        </mxGraphModel>
    </diagram>
</mxfile>